# xmcd
#
# Track frame offsets:
#	150
#	11652
#	24085
#	34500
#	44190
#	53702
#	69732
#	82335
#	93247
#	106372
#	117415
#	129910
#	142267
#	152935
#	164802
#	173777
#
# Disc length: 2492 seconds
#
# Revision: 1
# Processed by: cddbd v1.5.2PL0 Copyright (c) Steve Scherf et al.
# Submitted via: audiograbber 1.83.01
#
DISCID=e209ba10
DTITLE=Big Tom and The Mainliners - Greatest Hits
DYEAR=1991
DGENRE=
TTITLE0=Smoke Along The Track
TTITLE1=Gentle Mother
TTITLE2=I Love You Still
TTITLE3=Wild and Wicked World
TTITLE4=Broken Marriage Vows
TTITLE5=A Tramp On The Street
TTITLE6=Four Country Roads
TTITLE7=Hill Above The City
TTITLE8=Old Love Letters
TTITLE9=Old Country Church
TTITLE10=Dim Lights
TTITLE11=Why Must You Throw Dirt In My Face
TTITLE12=Ashes Of Love
TTITLE13=I Can't Make My Dreams Understand
TTITLE14=Pain Of Loving You
TTITLE15=Back To Castleblayney
EXTD=
EXTT0=
EXTT1=
EXTT2=
EXTT3=
EXTT4=
EXTT5=
EXTT6=
EXTT7=
EXTT8=
EXTT9=
EXTT10=
EXTT11=
EXTT12=
EXTT13=
EXTT14=
EXTT15=
PLAYORDER=
